# xmcd
#
# Track frame offsets:
#	150
#	13891
#	32364
#	46068
#	59615
#	79903
#	98145
#	110157
#	128824
#	141269
#	153383
#	166734
#	181791
#	198615
#	219019
#	243851
#
# Disc length: 3542 seconds
#
# Revision: 1
# Processed by: cddbd v1.5.2PL0 Copyright (c) Steve Scherf et al.
# Submitted via: audiograbber 1.83.01
#
DISCID=d10dd410
DTITLE=All Star Karaoke Willie, Waylon, and Hank Jr. - ASK82-1
DYEAR=1900
DGENRE=Karaoke
TTITLE0=Williams Jr., Hank - Williams Jr., Hank
TTITLE1=Williams Jr., Hank - Williams Jr., Hank
TTITLE2=Williams Jr., Hank - All My Rowdy Friends Are Coming Over Tonight
TTITLE3=Williams Jr., Hank - All My Rowdy Friends Have Settled Down
TTITLE4=Williams Jr., Hank - Attitude Adjustment
TTITLE5=Williams Jr., Hank - Country State Of Mind
TTITLE6=Williams Jr., Hank - Dixie On My Mind
TTITLE7=Williams Jr., Hank - Family Tradition
TTITLE8=Williams Jr., Hank - Gonna Go Huntin' Tonight
TTITLE9=Williams Jr., Hank and Williams, Hank - Mind Your Own Business
TTITLE10=Williams Jr., Hank - There's A Tear In My Beer
TTITLE11=Williams Jr., Hank - Whiskey Bent and Hell Bound
TTITLE12=Williams Jr., Hank - Young Country
TTITLE13=Duet Hank Williams Jr Gretchen Wilson - Outlaw Women
TTITLE14=Jennings, Waylon - Are You Sure Hank Done It This Way
TTITLE15=Data - Data Track
EXTD=
EXTT0=
EXTT1=
EXTT2=
EXTT3=
EXTT4=
EXTT5=
EXTT6=
EXTT7=
EXTT8=
EXTT9=
EXTT10=
EXTT11=
EXTT12=
EXTT13=
EXTT14=
EXTT15=
PLAYORDER=
